#!OML:ASF X:\für Bonn\!DataBase\2005_08_10_Bjorn_Final\c3d\bjorn.ASF
:FULLY-SPECIFIED
:DEGREES
340
root 21.9012 19.292 -1.13836 4.09595 -71.426 -344.326
lowerback 35.8393 1.67264 4.50074
upperback 19.6653 1.26475 -0.66594
thorax 3.81317 0.382512 -3.44537
lowerneck -6.48604 -3.99471 8.55398
upperneck -11.7141 -5.75622 3.69389
head -2.80073 -3.4916 -0.206193
rclavicle 2.54444e-014 -2.22639e-014
rhumerus 10.2139 19.8252 -65.055
rradius 32.098
rwrist -6.42387
rhand -17.8625 15.2129
rfingers 7.12502
rthumb 8.40306 -14.5999
lclavicle 2.54444e-014 -2.22639e-014
lhumerus 35.0542 -39.0648 52.7409
lradius 38.9392
lwrist -5.96531
lhand -25.8512 -4.3111
lfingers 7.12502
lthumb 0.689427 25.6675
rfemur -37.2133 -8.42602 13.8017
rtibia 37.5128
rfoot -14.7881 6.08743
rtoes -6.14686
lfemur -34.966 10.7094 -20.3786
ltibia 32.7245
lfoot -7.29429 -2.65453
ltoes -15.8859
341
root 21.8336 19.3073 -1.14992 3.47642 -71.5595 -344.344
lowerback 35.0452 1.65835 4.4767
upperback 19.614 1.24205 -0.712099
thorax 4.01857 0.381798 -3.47505
lowerneck -6.55341 -4.02032 8.38045
upperneck -11.7355 -5.7881 3.75936
head -2.78747 -3.50307 -0.157483
rclavicle 4.77083e-015 2.22639e-014
rhumerus 8.68786 19.5333 -66.1528
rradius 32.3675
rwrist -6.22041
rhand -17.6785 15.2358
rfingers 7.12502
rthumb 8.58058 -14.5698
lclavicle 4.77083e-015 2.22639e-014
lhumerus 33.6355 -39.5059 52.9651
lradius 39.781
lwrist -5.78436
lhand -26.01 -4.32891
lfingers 7.12502
lthumb 0.536106 25.6502
rfemur -36.097 -8.4753 13.8788
rtibia 37.1073
rfoot -14.8227 6.38213
rtoes -5.90227
lfemur -33.7604 10.6861 -20.0175
ltibia 32.3044
lfoot -7.31178 -2.54012
ltoes -16.183
342
root 21.7638 19.3227 -1.1608 2.90956 -71.6845 -344.42
lowerback 34.2149 1.63905 4.47288
upperback 19.5982 1.21283 -0.754517
thorax 4.28364 0.380399 -3.51002
lowerneck -6.72388 -4.04356 8.20886
upperneck -11.7652 -5.83207 3.79767
head -2.76025 -3.52071 -0.12019
rclavicle -6.20208e-014 4.92986e-014
rhumerus 7.31037 19.1983 -67.1924
rradius 32.5428
rwrist -5.95583
rhand -17.4889 15.319
rfingers 7.12502
rthumb 8.76361 -14.479
lclavicle -6.20208e-014 4.92986e-014
lhumerus 32.252 -39.9222 53.1431
lradius 40.639
lwrist -5.60068
lhand -26.1808 -4.35976
lfingers 7.12502
lthumb 0.371132 25.6197
rfemur -34.9698 -8.51245 13.9647
rtibia 36.7131
rfoot -14.8923 6.64723
rtoes -5.54903
lfemur -32.5498 10.582 -19.6108
ltibia 31.9095
lfoot -7.37348 -2.40062
ltoes -16.5517
343
root 21.6936 19.3347 -1.17258 2.32494 -71.8166 -344.462
lowerback 33.3963 1.63062 4.43245
upperback 19.544 1.19386 -0.784291
thorax 4.50777 0.379684 -3.51493
lowerneck -6.77499 -4.06716 7.94289
upperneck -11.9007 -5.85087 3.88959
head -2.78395 -3.52904 -0.0452505
rclavicle -1.43125e-014 -1.90833e-014
rhumerus 5.95958 18.9028 -68.1854
rradius 32.6981
rwrist -5.792
rhand -17.2544 15.3259
rfingers 7.12502
rthumb 8.98982 -14.4625
lclavicle -1.43125e-014 -1.90833e-014
lhumerus 30.7618 -40.3382 53.463
lradius 41.4828
lwrist -5.43692
lhand -26.3499 -4.35047
lfingers 7.12502
lthumb 0.207758 25.6292
rfemur -33.8767 -8.56186 14.0447
rtibia 36.3348
rfoot -14.943 6.92349
rtoes -5.30272
lfemur -31.3687 10.5194 -19.2301
ltibia 31.5298
lfoot -7.40294 -2.2885
ltoes -16.8842
344
root 21.6212 19.3454 -1.18321 1.69246 -71.9879 -344.404
lowerback 32.5085 1.64454 4.32991
upperback 19.4824 1.18746 -0.809031
thorax 4.75432 0.380432 -3.4847
lowerneck -6.70307 -4.08217 7.57084
upperneck -12.1529 -5.83205 4.03901
head -2.86254 -3.52187 0.0709744
rclavicle -2.70347e-014 9.93923e-015
rhumerus 4.74688 18.6412 -69.1063
rradius 32.743
rwrist -5.58896
rhand -17.0548 15.3555
rfingers 7.12502
rthumb 9.18242 -14.4246
lclavicle -2.70347e-014 9.93923e-015
lhumerus 29.243 -40.7462 53.8136
lradius 42.3134
lwrist -5.29749
lhand -26.5191 -4.38523
lfingers 7.12502
lthumb 0.0444183 25.5945
rfemur -32.8385 -8.59728 14.092
rtibia 35.9717
rfoot -14.9764 7.21848
rtoes -4.91792
lfemur -30.2402 10.4424 -18.8912
ltibia 31.1656
lfoot -7.44579 -2.14153
ltoes -17.1997
345
root 21.5476 19.355 -1.19345 1.11508 -72.1397 -344.389
lowerback 31.6222 1.64094 4.24685
upperback 19.3977 1.16998 -0.837465
thorax 4.98285 0.377977 -3.46546
lowerneck -6.71819 -4.09315 7.20514
upperneck -12.2645 -5.822 4.17013
head -2.87882 -3.5104 0.174851
rclavicle -2.70347e-014 1.11319e-013
rhumerus 3.57986 18.3663 -70.047
rradius 32.727
rwrist -5.33676
rhand -16.9167 15.3394
rfingers 7.12502
rthumb 9.31576 -14.4348
lclavicle -2.70347e-014 1.11319e-013
lhumerus 27.682 -41.1376 54.2364
lradius 43.1101
lwrist -5.17437
lhand -26.6744 -4.44983
lfingers 7.12502
lthumb -0.105614 25.5299
rfemur -31.8141 -8.64491 14.1517
rtibia 35.6228
rfoot -15.0625 7.50651
rtoes -4.77195
lfemur -29.1275 10.3446 -18.5396
ltibia 30.8163
lfoot -7.5006 -1.99132
ltoes -17.4613
346
root 21.4728 19.3632 -1.20406 0.436716 -72.2938 -344.242
lowerback 30.7017 1.63305 4.12816
upperback 19.3077 1.14094 -0.893684
thorax 5.22475 0.369402 -3.45369
lowerneck -6.7162 -4.09391 6.84478
upperneck -12.3776 -5.79584 4.3083
head -2.89873 -3.4912 0.280429
rclavicle 2.54444e-014 9.93923e-015
rhumerus 2.45307 18.1193 -70.956
rradius 32.7479
rwrist -5.14261
rhand -16.7049 15.3163
rfingers 7.12502
rthumb 9.52012 -14.4486
lclavicle 2.54444e-014 9.93923e-015
lhumerus 26.205 -41.5718 54.5512
lradius 43.8845
lwrist -4.90434
lhand -26.7776 -4.4281
lfingers 7.12502
lthumb -0.205293 25.5515
rfemur -30.8272 -8.70907 14.168
rtibia 35.2879
rfoot -15.1112 7.84044
rtoes -4.29316
lfemur -28.0463 10.2149 -18.2368
ltibia 30.479
lfoot -7.60258 -1.80758
ltoes -17.8595
347
root 21.3972 19.3702 -1.21435 -0.1427 -72.4714 -344.166
lowerback 29.7898 1.61517 4.02646
upperback 19.1682 1.11234 -0.959585
thorax 5.41769 0.363075 -3.46073
lowerneck -6.70016 -4.09982 6.4467
upperneck -12.3772 -5.77276 4.46972
head -2.88021 -3.46586 0.397033
rclavicle 4.45278e-014 0
rhumerus 1.29807 17.8572 -71.8968
rradius 32.7477
rwrist -4.85459
rhand -16.5494 15.268
rfingers 7.12502
rthumb 9.67007 -14.4901
lclavicle 4.45278e-014 0
lhumerus 24.679 -41.9945 54.9784
lradius 44.5726
lwrist -4.63381
lhand -26.92 -4.53248
lfingers 7.12502
lthumb -0.342864 25.447
rfemur -29.8834 -8.74564 14.2043
rtibia 34.9676
rfoot -15.1634 8.16966
rtoes -3.80337
lfemur -27.0109 10.1113 -17.9177
ltibia 30.1483
lfoot -7.63676 -1.65406
ltoes -18.0407
348
root 21.3204 19.376 -1.2244 -0.724586 -72.6538 -344.084
lowerback 28.6757 1.61014 3.90252
upperback 18.9063 1.07006 -0.926334
thorax 5.90888 0.360549 -3.53756
lowerneck -6.69353 -4.10393 6.07856
upperneck -12.2517 -5.75488 4.58335
head -2.82022 -3.43615 0.489805
rclavicle 3.4191e-014 -1.98785e-014
rhumerus 0.142964 17.6078 -72.7901
rradius 32.7559
rwrist -4.58057
rhand -16.3773 15.2303
rfingers 7.12502
rthumb 9.83616 -14.5199
lclavicle 3.4191e-014 -1.98785e-014
lhumerus 23.1408 -42.4059 55.4841
lradius 45.158
lwrist -4.456
lhand -27.0398 -4.64053
lfingers 7.12502
lthumb -0.458571 25.3387
rfemur -28.949 -8.80621 14.2459
rtibia 34.6617
rfoot -15.2245 8.50077
rtoes -3.39893
lfemur -25.9656 9.94918 -17.5853
ltibia 29.8223
lfoot -7.71449 -1.46078
ltoes -18.0059
349
root 21.2426 19.3809 -1.23427 -1.22247 -72.8428 -344.067
lowerback 27.7672 1.58506 3.84337
upperback 18.7211 1.05186 -1.03096
thorax 6.08341 0.366727 -3.60152
lowerneck -6.61541 -4.10753 5.81671
upperneck -12.0895 -5.73439 4.69068
head -2.76497 -3.40786 0.564112
rclavicle -9.54166e-015 1.19271e-014
rhumerus -1.02672 17.2388 -73.7385
rradius 32.78
rwrist -4.21357
rhand -16.2045 15.1677
rfingers 7.12502
rthumb 10.0029 -14.5746
lclavicle -9.54166e-015 1.19271e-014
lhumerus 21.6951 -42.8845 55.9127
lradius 45.6377
lwrist -4.39445
lhand -27.3719 -4.72915
lfingers 7.12502
lthumb -0.779259 25.2492
rfemur -28.0383 -8.87884 14.3126
rtibia 34.3641
rfoot -15.3001 8.83683
rtoes -3.19043
lfemur -24.9526 9.74702 -17.2354
ltibia 29.511
lfoot -7.80372 -1.23405
ltoes -18.0517
350
root 21.1637 19.3843 -1.24381 -1.80179 -73.0306 -343.934
lowerback 26.8525 1.54741 3.77932
upperback 18.4985 1.02389 -1.18841
thorax 6.22239 0.372042 -3.71881
lowerneck -6.50324 -4.10616 5.71004
upperneck -11.8326 -5.71934 4.70555
head -2.69234 -3.38166 0.582146
rclavicle -1.59028e-015 -3.02153e-014
rhumerus -2.2145 16.9464 -74.7062
rradius 32.8378
rwrist -3.96228
rhand -15.9927 15.0906
rfingers 7.12502
rthumb 10.2072 -14.6417
lclavicle -1.59028e-015 -3.02153e-014
lhumerus 20.2008 -43.407 56.3185
lradius 46.0799
lwrist -4.28215
lhand -27.6762 -4.94279
lfingers 7.12502
lthumb -1.07317 25.0343
rfemur -27.1671 -8.9655 14.3402
rtibia 34.0794
rfoot -15.3645 9.19717
rtoes -2.8628
lfemur -23.9707 9.58341 -16.9406
ltibia 29.209
lfoot -7.91484 -1.04185
ltoes -18.2266
351
root 21.0846 19.3874 -1.25288 -2.2514 -73.2247 -343.916
lowerback 25.944 1.5102 3.73164
upperback 18.2417 1.00495 -1.32036
thorax 6.32475 0.381232 -3.81843
lowerneck -6.25287 -4.12089 5.53808
upperneck -11.6371 -5.70895 4.72223
head -2.66283 -3.35861 0.616841
rclavicle -2.14687e-014 -5.28767e-014
rhumerus -3.43445 16.6947 -75.6111
rradius 32.9325
rwrist -3.77681
rhand -15.7994 14.9484
rfingers 7.12502
rthumb 10.3937 -14.7748
lclavicle -2.14687e-014 -5.28767e-014
lhumerus 18.6248 -43.9023 56.8969
lradius 46.4515
lwrist -4.13629
lhand -27.9434 -5.08737
lfingers 7.12502
lthumb -1.33122 24.8882
rfemur -26.3199 -9.01968 14.4011
rtibia 33.8035
rfoot -15.4084 9.55019
rtoes -2.36055
lfemur -23.0254 9.34578 -16.6023
ltibia 28.9305
lfoot -8.00558 -0.801995
ltoes -17.9294
352
root 21.0042 19.3882 -1.26261 -2.78314 -73.4287 -343.807
lowerback 25.0318 1.48683 3.63284
upperback 17.9769 0.995389 -1.44391
thorax 6.4244 0.389415 -3.88118
lowerneck -5.87003 -4.16003 5.38706
upperneck -11.5402 -5.72211 4.70341
head -2.6924 -3.35289 0.643419
rclavicle 2.38542e-015 8.22969e-014
rhumerus -4.60403 16.4348 -76.457
rradius 32.9891
rwrist -3.57362
rhand -15.5366 14.8513
rfingers 7.12502
rthumb 10.6472 -14.859
lclavicle 2.38542e-015 8.22969e-014
lhumerus 17.0214 -44.3525 57.5702
lradius 46.7651
lwrist -3.97995
lhand -28.1713 -5.28982
lfingers 7.12502
lthumb -1.55136 24.6843
rfemur -25.4888 -9.10906 14.4392
rtibia 33.5423
rfoot -15.4941 9.92684
rtoes -2.03734
lfemur -22.0952 9.17708 -16.3155
ltibia 28.6755
lfoot -8.11254 -0.577927
ltoes -18.1328
